<svg xmlns="http://www.w3.org/2000/svg" viewBox="0 0 800 800"><defs><style>.a{fill:#fff;}</style></defs><path class="a" d="M410.002,50.00189C217.00879,50.00189,60,207.00952,60,400.00122c0,192.98792,157.00879,349.99683,350.002,349.99683C602.99121,749.99805,760,592.98914,760,400.00122,760,207.00952,602.99121,50.00189,410.002,50.00189Zm97.085,207.60846a5.28386,5.28386,0,0,1-5.2832,5.28345H459.71289A18.701,18.701,0,0,0,441.01172,281.595v44.06958H500.875a5.28375,5.28375,0,0,1,5.26562,5.72974l-5.25146,62.11548a5.28388,5.28388,0,0,1-5.26562,4.83715H441.01172V604.50513a5.28227,5.28227,0,0,1-5.28369,5.2821H360.39746a5.28279,5.28279,0,0,1-5.2832-5.2821V398.34692H317.44873a5.28281,5.28281,0,0,1-5.2832-5.28222V330.94934a5.28415,5.28415,0,0,1,5.2832-5.28479h37.66553v-59.884a75.5688,75.5688,0,0,1,75.56885-75.56909h71.1206a5.28391,5.28391,0,0,1,5.2832,5.2835Z"/></svg>