<svg width="115" height="22" viewBox="0 0 115 22" fill="none" xmlns="http://www.w3.org/2000/svg">
<g clip-path="url(#clip0)">
<path d="M6 4.90039C4.1 4.90039 2.6 5.40039 1.6 6.50039C0.5 7.60039 0 9.10039 0 11.0004C0 12.9004 0.5 14.4004 1.6 15.5004C2.7 16.6004 4.1 17.1004 6 17.1004C7.9 17.1004 9.4 16.6004 10.4 15.5004C11.5 14.4004 12 12.9004 12 11.0004C12 9.10039 11.5 7.60039 10.4 6.50039C9.4 5.50039 7.9 4.90039 6 4.90039ZM8.1 13.8004C7.6 14.4004 6.9 14.7004 6 14.7004C5.1 14.7004 4.4 14.4004 3.9 13.8004C3.4 13.2004 3.2 12.3004 3.2 11.0004C3.2 9.80039 3.4 8.80039 3.9 8.20039C4.4 7.60039 5.1 7.30039 6 7.30039C6.9 7.30039 7.6 7.60039 8.1 8.20039C8.6 8.90039 8.8 9.80039 8.8 11.0004C8.8 12.3004 8.6 13.2004 8.1 13.8004Z" fill="white"/>
<path d="M20.7998 4.90039C19.8998 4.90039 19.0998 5.10039 18.3998 5.50039C17.6998 5.90039 17.1998 6.50039 16.7998 7.20039L16.6998 5.10039H13.7998V16.9004H16.9998V10.7004C16.9998 9.60039 17.2998 8.80039 17.7998 8.30039C18.2998 7.80039 18.9998 7.50039 19.6998 7.50039C21.0998 7.50039 21.7998 8.40039 21.7998 10.2004V17.0004H24.9998V9.20039C24.9998 7.80039 24.5998 6.80039 23.7998 6.00039C23.0998 5.30039 21.9998 4.90039 20.7998 4.90039Z" fill="white"/>
<path d="M32.6001 4.90039C30.7001 4.90039 29.3001 5.40039 28.2001 6.50039C27.2001 7.60039 26.6001 9.10039 26.6001 11.0004C26.6001 12.9004 27.1001 14.4004 28.2001 15.5004C29.3001 16.6004 30.8001 17.1004 32.7001 17.1004C34.0001 17.1004 35.1001 16.9004 36.0001 16.4004C36.9001 15.9004 37.5001 15.2004 37.9001 14.2004L35.3001 13.2004C35.1001 13.7004 34.8001 14.0004 34.4001 14.3004C34.0001 14.6004 33.4001 14.7004 32.7001 14.7004C31.1001 14.7004 30.1001 13.9004 29.8001 12.2004H38.1001C38.2001 11.8004 38.2001 11.4004 38.2001 10.9004C38.2001 9.00039 37.7001 7.50039 36.7001 6.40039C35.8001 5.40039 34.4001 4.90039 32.6001 4.90039ZM29.8001 10.0004C29.9001 9.10039 30.2001 8.40039 30.7001 8.00039C31.2001 7.50039 31.8001 7.30039 32.6001 7.30039C33.4001 7.30039 34.0001 7.50039 34.4001 8.00039C34.9001 8.50039 35.2001 9.10039 35.3001 10.0004H29.8001Z" fill="white"/>
<path d="M63.9002 5.2002H60.7002V17.0002H63.9002V5.2002Z" fill="white"/>
<path d="M62.3999 0C61.0999 0 60.3999 0.6 60.3999 1.7C60.3999 2.8 61.0999 3.4 62.3999 3.4C63.6999 3.4 64.3999 2.8 64.3999 1.7C64.3999 0.6 63.6999 0 62.3999 0Z" fill="white"/>
<path d="M75.8998 4.90041C76.2998 4.70041 76.7998 4.60041 77.2998 4.60041C77.4998 4.60041 77.6998 4.60041 77.7998 4.60041L77.3998 2.30041C76.3998 2.20041 75.5998 2.50041 74.9998 3.00041C74.3998 3.50041 73.9998 4.30041 73.7998 5.20041C73.0998 5.00041 72.2998 4.90041 71.3998 4.90041C69.6998 4.90041 68.3998 5.30041 67.4998 6.00041C66.4998 6.70041 66.0998 7.70041 66.0998 8.90041C66.0998 9.60041 66.2998 10.2004 66.5998 10.8004C66.8998 11.3004 67.3998 11.8004 67.9998 12.1004C67.3998 12.3004 66.9998 12.6004 66.5998 13.0004C66.2998 13.4004 66.0998 13.9004 66.0998 14.5004C66.0998 15.0004 66.2998 15.5004 66.5998 15.9004C66.8998 16.3004 67.2998 16.6004 67.8998 16.8004C67.1998 17.0004 66.6998 17.3004 66.2998 17.6004C65.8998 18.0004 65.7998 18.5004 65.7998 19.0004C65.7998 19.9004 66.2998 20.6004 67.1998 21.1004C68.0998 21.6004 69.5998 21.9004 71.5998 21.9004C73.4998 21.9004 74.9998 21.5004 76.1998 20.8004C77.3998 20.1004 77.8998 19.1004 77.8998 17.9004C77.8998 16.8004 77.5998 16.0004 76.8998 15.5004C76.1998 14.9004 75.1998 14.7004 73.8998 14.7004H69.8998C69.4998 14.7004 69.0998 14.6004 68.8998 14.5004C68.6998 14.3004 68.4998 14.1004 68.4998 13.8004C68.4998 13.3004 68.7998 12.9004 69.3998 12.7004C69.9998 12.8004 70.6998 12.9004 71.4998 12.9004C73.1998 12.9004 74.4998 12.5004 75.4998 11.8004C76.4998 11.1004 76.8998 10.1004 76.8998 8.90041C76.8998 8.20041 76.6998 7.60041 76.3998 7.10041C76.0998 6.60041 75.6998 6.10041 75.0998 5.80041C75.1998 5.40041 75.4998 5.10041 75.8998 4.90041ZM70.1998 17.3004H73.3998C73.9998 17.3004 74.4998 17.4004 74.7998 17.5004C75.0998 17.7004 75.1998 17.9004 75.1998 18.2004C75.1998 18.6004 74.8998 19.0004 74.2998 19.2004C73.6998 19.5004 72.8998 19.6004 71.7998 19.6004C70.5998 19.6004 69.7998 19.5004 69.1998 19.2004C68.5998 19.0004 68.2998 18.6004 68.2998 18.2004C68.1998 17.7004 68.8998 17.3004 70.1998 17.3004ZM72.9998 10.3004C72.5998 10.7004 72.0998 10.8004 71.3998 10.8004C70.7998 10.8004 70.2998 10.6004 69.8998 10.3004C69.4998 9.90041 69.2998 9.50041 69.2998 8.90041C69.2998 8.30041 69.4998 7.80041 69.8998 7.50041C70.2998 7.10041 70.7998 7.00041 71.3998 7.00041C71.9998 7.00041 72.5998 7.20041 72.9998 7.50041C73.3998 7.90041 73.5998 8.30041 73.5998 8.90041C73.5998 9.50041 73.3998 10.0004 72.9998 10.3004Z" fill="white"/>
<path d="M86.5 4.9C85.6 4.9 84.9 5.1 84.2 5.5C83.5 5.9 83 6.4 82.7 7.2V0H79.5V16.9H82.7V10.7C82.7 9.6 83 8.8 83.5 8.3C84 7.8 84.7 7.5 85.4 7.5C86.8 7.5 87.5 8.4 87.5 10.2V17H90.7V9.2C90.7 7.8 90.3 6.8 89.5 6C88.8 5.3 87.8 4.9 86.5 4.9Z" fill="white"/>
<path d="M98.6998 14.6996C97.5998 14.6996 97.0998 14.1996 97.0998 13.0996V7.59961H100.9V5.19961H97.0998V1.59961L93.8998 2.49961V5.19961H91.7998V7.59961H93.8998V13.6996C93.8998 16.0996 95.1998 17.2996 97.7998 17.2996C98.3998 17.2996 98.9998 17.1996 99.5998 16.9996C100.2 16.7996 100.6 16.5996 101 16.2996L100.5 14.1996C99.9998 14.4996 99.3998 14.6996 98.6998 14.6996Z" fill="white"/>
<path d="M111.3 5.2L109.1 12.1L108.4 14.6L107.8 12.2L105.6 5.1H102L105.6 14L106.9 17.1L106.5 18.1C106.3 18.6 106 19 105.7 19.2C105.4 19.4 105 19.5 104.5 19.5C104 19.5 103.7 19.4 103.4 19.3C103.1 19.2 102.8 19 102.6 18.7L101.8 21C102.5 21.6 103.5 21.9 104.8 21.9C106.1 21.9 107.1 21.6 107.8 20.9C108.6 20.3 109.2 19.1 109.8 17.5L114.6 5H111.3V5.2Z" fill="white"/>
<path d="M53.0999 4.90039C51.2999 4.90039 49.8999 5.40039 48.8999 6.50039C47.8999 7.60039 47.3999 9.10039 47.3999 11.0004C47.3999 11.4004 47.3999 11.9004 47.4999 12.3004H55.7999C55.4999 14.0004 54.4999 14.8004 52.8999 14.8004C52.1999 14.8004 51.6999 14.7004 51.1999 14.4004C50.7999 14.1004 50.4999 13.8004 50.2999 13.3004L47.6999 14.3004C48.0999 15.2004 48.6999 16.0004 49.5999 16.5004C50.4999 17.0004 51.5999 17.2004 52.8999 17.2004C54.7999 17.2004 56.3999 16.7004 57.3999 15.6004C58.4999 14.5004 58.9999 13.0004 58.9999 11.0004C58.9999 9.10039 58.4999 7.60039 57.3999 6.50039C56.3999 5.50039 54.8999 4.90039 53.0999 4.90039ZM50.3999 10.0004C50.4999 9.10039 50.7999 8.50039 51.2999 8.00039C51.7999 7.50039 52.3999 7.30039 53.0999 7.30039C53.8999 7.30039 54.4999 7.50039 54.9999 8.00039C55.4999 8.50039 55.7999 9.10039 55.8999 10.0004H50.3999Z" fill="white"/>
<path d="M45.4001 9.2998H40.1001V12.0998H45.4001V9.2998Z" fill="white"/>
</g>
<defs>
<clipPath id="clip0">
<rect width="114.5" height="22" fill="white"/>
</clipPath>
</defs>
</svg>
