<svg xmlns="http://www.w3.org/2000/svg" viewBox="0 0 238.2016 367.2607"><path d="M233.9486,336.0386l-49.731,28.7122a4.7558,4.7558,0,0,1-4.7574.0009l-49.741-28.7068a4.7558,4.7558,0,0,1-2.378-4.1187l-.0035-57.4381a4.7558,4.7558,0,0,1,2.3851-4.125l49.7376-28.716a4.7558,4.7558,0,0,1,4.7575-.0009l49.7354,28.7275a4.7559,4.7559,0,0,1,2.378,4.1187l-.0032,57.4266A4.7557,4.7557,0,0,1,233.9486,336.0386Z" fill="#e5d282"/><path d="M210.1156,187.4859l-97.1523,56.0909a9.293,9.293,0,0,1-9.2916,0L6.5193,187.49a9.2909,9.2909,0,0,1-4.6465-8.048L1.87,67.2559a9.2931,9.2931,0,0,1,4.6451-8.0483L103.6678,3.1168a9.2949,9.2949,0,0,1,9.2942,0l97.1543,56.0907a9.2951,9.2951,0,0,1,4.6465,8.048l0,112.1825A9.2949,9.2949,0,0,1,210.1156,187.4859Z" fill="#66d7d1"/></svg>