<svg xmlns="http://www.w3.org/2000/svg" viewBox="0 0 800 800"><defs><style>.a{fill:#fff;}</style></defs><path class="a" d="M419.99756,50.00128C227.00781,50.00128,70,207.00928,70,400.00122,70,592.9895,227.00781,749.99878,419.99756,749.99878,612.99072,749.99878,770,592.9895,770,400.00122,770,207.00928,612.99072,50.00128,419.99756,50.00128ZM620.67383,279.125c-9.5376,12.83545-19.69776,24.33081-32.48194,33.93726-1.853,1.39148-4.9707,2.84826-4.9707,5.48742,0,67.41321-17.22265,134.7417-66.36035,183.56385-62.57471,62.17065-156.44775,79.083-239.78564,56.06787A229.1247,229.1247,0,0,1,230.70361,539.634c-4.90478-2.67639-9.71777-5.44384-14.44873-8.5664-1.19775-.96949-2.09131-1.86084-1.06836-2.49305,1.01221-.50781,1.79444-.5476,5.52491,0,23.30761,2.298,47.31933-1.17077,69.37255-8.878,12.12647-4.23706,38.16553-12.75854,45.67676-24.2091.17285-.26429.35645-.26429.53858-.5387-3.03955-.71167-6.07227-.71167-9.104-1.24121C304.55322,487.23511,274.31689,475.877,260.30908,437.7c-.88574-2.22876,0-3.3894,2.31983-2.94189,18.64111,1.45813,25.33545.43872,31.83593-.98609a50.24266,50.24266,0,0,1-10.78662-3.29712c-28.52685-10.85424-49.35693-38.677-53.15674-68.75708a51.23623,51.23623,0,0,1-.53076-9.6333c.17334-2.22876,1.15918-2.94055,3.12256-1.69922,14.66553,7.58667,31.12256,9.36914,32.45654,9.09607-3.65234-2.84948-7.042-5.97351-10.3374-9.09607-24.73-23.42822-34.335-71.10254-14.53857-100.77478,1.60791-2.41089,2.6748-2.41089,4.63818-.17309,45.23926,51.55115,100.96875,75.61023,168.19971,85.61426,1.77978.2655,1.95312,0,1.689-1.96338-1.74951-11.84424-1.98388-23.43457.88086-35.15052a85.44952,85.44952,0,0,1,16.62256-33.29113,88.90508,88.90508,0,0,1,27.83447-22.73572,86.91712,86.91712,0,0,1,34.50147-9.74487,82.53111,82.53111,0,0,1,36.36767,5.85546A86.65014,86.65014,0,0,1,555.13916,252.551a39.65843,39.65843,0,0,1,4.27832,4.37426,3.27048,3.27048,0,0,0,3.37647.89514,210.59017,210.59017,0,0,0,48.94531-18.72937,2.33353,2.33353,0,0,1,2.18359-.18347c.71338.5387.44141,1.43372.08594,2.14673a75.72855,75.72855,0,0,1-13.72412,24.98889c-3.91113,4.86023-13.69727,16.88147-20.3374,17.99585,13.9873-2.34814,28.25-5.90674,41.21-11.77112,1.65918-.754,1.52734-1.07727,1.52734,0v.35657A9.8674,9.8674,0,0,1,620.67383,279.125Z"/><path class="a" d="M349.78564,566.76855a.3172.3172,0,0,0-.13769.09058.12887.12887,0,0,0-.022.06177C350.25488,566.9209,349.9917,566.74524,349.78564,566.76855Z"/><path class="a" d="M335.89111,566.56445c-6.73242,0-.53466.041,0,0Z"/><path class="a" d="M349.78564,566.76855c.20606-.02331.46924.15235-.15966.15235C356.2085,566.9209,350.80469,566.35144,349.78564,566.76855Z"/><path class="a" d="M493.916,232.48792h-1.6875A1.4629,1.4629,0,0,0,493.916,232.48792Z"/></svg>