<svg width="22" height="22" viewBox="0 0 22 22" fill="none" xmlns="http://www.w3.org/2000/svg">
<path d="M21.2667 0.733333V21.2667H0.733333V0.733333H21.2667ZM22 0H0V22H22V0Z" fill="white"/>
<path d="M7.69975 7.25977H4.91309V17.0131H7.69975V7.25977Z" fill="white"/>
<path d="M16.4999 8.06677C15.6933 7.18677 14.0066 7.11343 12.9799 7.40677C12.3199 7.55343 12.0266 8.1401 11.8799 8.5801V7.2601H9.09326V17.0134H11.8799V11.2934C11.8799 11.2934 11.8799 10.0468 13.1999 10.0468C14.5199 10.0468 14.5933 11.3668 14.5933 11.3668V17.0134H17.3799C17.3799 17.0134 17.3799 12.1734 17.3799 11.2934C17.3799 10.4134 17.3799 8.94677 16.4999 8.06677Z" fill="white"/>
<path d="M6.30642 6.5269C7.07594 6.5269 7.69975 5.90309 7.69975 5.13357C7.69975 4.36405 7.07594 3.74023 6.30642 3.74023C5.5369 3.74023 4.91309 4.36405 4.91309 5.13357C4.91309 5.90309 5.5369 6.5269 6.30642 6.5269Z" fill="white"/>
</svg>
