<svg xmlns="http://www.w3.org/2000/svg" width="17.896" height="17.999" viewBox="0 0 17.896 17.999">
  <path className="icon" id="Path_5153" data-name="Path 5153" d="M102.908,633.073a1.307,1.307,0,0,1,.946.38,1.234,1.234,0,0,1,.391.915V649.8a1.2,1.2,0,0,1-.391.905,1.3,1.3,0,0,1-.926.371H87.665a1.3,1.3,0,0,1-.926-.371,1.2,1.2,0,0,1-.391-.905V634.368a1.232,1.232,0,0,1,.391-.915,1.307,1.307,0,0,1,.946-.38h15.222Zm-11.375,5.44a1.44,1.44,0,0,0,0-2.016,1.5,1.5,0,0,0-1.09-.4,1.532,1.532,0,0,0-1.1.4,1.334,1.334,0,0,0-.422,1.008,1.348,1.348,0,0,0,.411,1.008,1.465,1.465,0,0,0,1.07.4h.021A1.519,1.519,0,0,0,91.533,638.513Zm.247,1.512H89.085v8.125h2.695Zm9.73,3.456a3.941,3.941,0,0,0-.885-2.756,3.2,3.2,0,0,0-3.847-.432,3.186,3.186,0,0,0-.8.885v-1.152H93.281q.02.473,0,4.34v3.784h2.695V643.6a2.021,2.021,0,0,1,.082-.658,1.638,1.638,0,0,1,.494-.678,1.367,1.367,0,0,1,.905-.309,1.186,1.186,0,0,1,1.049.514,2.4,2.4,0,0,1,.309,1.317v4.36h2.695Z" transform="translate(-86.349 -633.073)" fill="#fffffe"/>
</svg>
