<svg width="438" height="1921" viewBox="0 0 438 1921" fill="none" xmlns="http://www.w3.org/2000/svg">
<g clip-path="url(#clip0)">
<path d="M233.528 1413.61C221.347 1459.67 199.651 1463.86 179.094 1463.86C150.167 1463.86 126.184 1433.4 126.184 1398.38C126.184 1364.51 141.411 1331.01 182.139 1329.11L182.139 1373.26C168.818 1374.4 163.867 1386.58 163.867 1397.24C163.867 1409.04 168.055 1419.7 181.379 1419.7C188.612 1419.7 193.56 1411.32 196.225 1401.05L203.456 1371.36C214.877 1330.24 242.284 1324.92 256.751 1324.92C293.294 1324.92 311.565 1360.7 311.565 1397.62C311.565 1432.64 289.866 1468.04 251.8 1469.19L251.8 1425.79C264.361 1424.65 275.402 1410.18 274.259 1393.05C273.879 1379.73 266.646 1369.83 256.368 1369.83C247.232 1369.45 242.664 1375.92 239.619 1389.25L233.528 1413.61Z" fill="#fff"/>
<path d="M307.757 1262.4L307.757 1308.84L129.99 1308.84L129.99 1262.4L156.257 1262.4C136.843 1252.12 126.184 1230.42 126.184 1209.49C126.184 1168 152.069 1143.25 202.696 1143.25L307.757 1143.25L307.757 1189.69L211.072 1189.69C185.184 1189.69 171.483 1203.4 171.483 1223.57C171.483 1244.89 182.139 1262.4 212.974 1262.4L307.757 1262.4Z" fill="#fff"/>
<path d="M284.918 978.486C303.189 989.525 311.183 1016.55 311.183 1033.68C311.183 1080.5 275.402 1124.28 218.682 1124.28C161.965 1124.28 126.184 1080.5 126.184 1033.68C126.184 1017.31 132.655 991.804 152.069 978.486L129.99 978.486L129.99 932.042L307.757 932.042L307.757 978.486L284.918 978.486ZM266.646 1027.21C266.646 1001.71 249.135 978.486 218.682 978.486C188.23 978.486 170.721 1002.85 170.721 1027.21C170.721 1053.09 189.755 1076.31 218.682 1076.31C247.615 1076.31 266.646 1053.09 266.646 1027.21Z" fill="#fff"/>
<path d="M153.972 859.47C136.08 849.951 126.184 827.109 126.184 803.89C126.184 757.451 162.728 717.102 218.682 717.102C275.402 717.102 311.565 757.451 311.565 803.89C311.565 827.109 302.047 849.951 284.158 859.47L394.167 859.47L394.167 905.909L129.99 905.909L129.99 859.47L153.972 859.47ZM267.406 811.506C267.406 786.001 248.375 764.684 219.445 764.684C190.135 764.684 170.721 786.001 170.721 811.506C170.721 837.01 189.755 858.704 219.445 858.704C249.897 858.704 267.406 835.868 267.406 811.506Z" fill="#fff"/>
<path d="M218.302 637.91C161.965 637.91 126.184 595.659 126.184 545.032C126.184 494.4 161.965 452.149 218.302 452.149C274.639 452.149 311.565 494.4 311.565 545.032C311.565 595.659 274.639 637.91 218.302 637.91ZM218.302 469.278C172.623 469.278 143.313 503.918 143.313 545.032C143.313 586.14 172.623 620.781 218.302 620.781C264.361 620.781 294.434 586.14 294.434 545.032C294.434 503.918 264.361 469.278 218.302 469.278Z" fill="#fff"/>
<path d="M129.99 428.038L129.99 410.527L165.01 410.527C136.46 400.248 126.184 372.081 126.184 347.719C126.184 305.085 155.874 276.913 203.456 276.913L307.757 276.913L307.757 294.047L203.456 294.047C165.773 294.047 143.313 315.741 143.313 347.719C143.313 378.932 160.822 409.384 208.026 410.527L307.757 410.527L307.757 428.038L129.99 428.038Z" fill="#fff"/>
<path d="M226.298 78.118L226.298 236.854C267.789 233.809 294.434 202.974 294.434 164.911C294.434 137.881 281.873 115.421 260.556 102.863L266.266 86.4938C295.196 101.72 311.565 131.03 311.565 164.911C311.565 214.772 274.639 254.366 218.302 254.366C161.965 254.366 126.184 214.772 126.184 164.911C126.184 114.284 161.965 77.7407 218.302 77.7407C220.973 77.6781 223.645 77.8042 226.298 78.118V78.118ZM210.309 236.854L210.309 95.2469C169.198 98.6749 143.313 126.465 143.313 164.911C143.313 202.591 169.198 233.809 210.309 236.854L210.309 236.854Z" fill="#fff"/>
<path d="M86.2831 1548.38L42.0441 1636.86C28.3083 1664.33 21.1572 1694.62 21.1572 1725.34C21.1572 1756.05 28.3083 1786.34 42.0441 1813.81L42.0441 1813.81L174.761 1548.38L86.2831 1548.38Z" fill="#fff"/>
<path d="M130.522 1813.81L103.088 1758.91L58.8289 1847.42L86.2829 1902.29L174.761 1902.29L351.717 1548.38L263.239 1548.38L130.522 1813.81Z" fill="#E4613F"/>
<path d="M324.283 1670.43L326.237 1674.34C334.149 1690.17 338.266 1707.63 338.264 1725.33C338.261 1743.04 334.138 1760.49 326.222 1776.33L263.239 1902.29L351.717 1902.29L395.956 1813.81C409.692 1786.34 416.843 1756.05 416.843 1725.34C416.843 1694.62 409.692 1664.33 395.956 1636.86L368.512 1581.97L324.283 1670.43Z" fill="#fff"/>
<path d="M131.133 77.7407L126.184 77.7407L126.184 56.137L131.133 56.137L131.133 64.1497L154.969 64.1497L154.969 69.796L131.133 69.796L131.133 77.7407ZM154.969 18.8485L154.969 24.7728L136.85 26.8668L151.763 34.0454L151.763 38.4376L136.918 45.6842L154.969 47.8463L154.969 53.6969L126.184 50.0708L126.184 45.3324L145.351 36.2074L126.184 27.2867L126.184 22.4065L154.969 18.8485Z" fill="#fff"/>
</g>
<defs>
<clipPath id="clip0">
<rect width="1920" height="437.14" fill="white" transform="translate(0.429932 1920.57) rotate(-90)"/>
</clipPath>
</defs>
</svg>
