<svg width="136" height="26" viewBox="0 0 136 26" fill="none" xmlns="http://www.w3.org/2000/svg">
<path d="M7.09589 5.7959C4.84886 5.7959 3.07489 6.38722 1.89224 7.68814C0.591324 8.98905 0 10.763 0 13.0101C0 15.2571 0.591324 17.0311 1.89224 18.332C3.19315 19.6329 4.84886 20.2242 7.09589 20.2242C9.34292 20.2242 11.1169 19.6329 12.2995 18.332C13.6005 17.0311 14.1918 15.2571 14.1918 13.0101C14.1918 10.763 13.6005 8.98905 12.2995 7.68814C11.1169 6.50549 9.34292 5.7959 7.09589 5.7959ZM9.57945 16.3215C8.98813 17.0311 8.16027 17.3859 7.09589 17.3859C6.03151 17.3859 5.20365 17.0311 4.61233 16.3215C4.021 15.6119 3.78448 14.5475 3.78448 13.0101C3.78448 11.5909 4.021 10.4082 4.61233 9.69864C5.20365 8.98905 6.03151 8.63425 7.09589 8.63425C8.16027 8.63425 8.98813 8.98905 9.57945 9.69864C10.1708 10.5265 10.4073 11.5909 10.4073 13.0101C10.4073 14.5475 10.1708 15.6119 9.57945 16.3215Z" fill="#E0092D"/>
<path d="M24.5998 5.7959C23.5354 5.7959 22.5893 6.03243 21.7615 6.50549C20.9336 6.97855 20.3423 7.68814 19.8692 8.51599L19.751 6.03243H16.3213V19.9877H20.1058V12.6553C20.1058 11.3543 20.4606 10.4082 21.0519 9.8169C21.6432 9.22558 22.4711 8.87078 23.2989 8.87078C24.9546 8.87078 25.7825 9.93517 25.7825 12.0639V20.1059H29.567V10.8813C29.567 9.22558 29.0939 8.04293 28.1478 7.09681C27.3199 6.26896 26.019 5.7959 24.5998 5.7959Z" fill="#E0092D"/>
<path d="M38.5539 5.7959C36.3069 5.7959 34.6512 6.38722 33.3502 7.68814C32.1676 8.98905 31.458 10.763 31.458 13.0101C31.458 15.2571 32.0493 17.0311 33.3502 18.332C34.6512 19.6329 36.4251 20.2242 38.6722 20.2242C40.2096 20.2242 41.5105 19.9877 42.5749 19.3964C43.6393 18.805 44.3489 17.9772 44.8219 16.7945L41.747 15.6119C41.5105 16.2032 41.1557 16.558 40.6827 16.9128C40.2096 17.2676 39.5 17.3859 38.6722 17.3859C36.7799 17.3859 35.5973 16.4397 35.2425 14.4292H45.0585C45.1767 13.9562 45.1767 13.4831 45.1767 12.8918C45.1767 10.6448 44.5854 8.87078 43.4028 7.56987C42.3384 6.38722 40.6827 5.7959 38.5539 5.7959ZM35.2425 11.8274C35.3607 10.763 35.7155 9.93517 36.3069 9.46211C36.8982 8.87078 37.6078 8.63425 38.5539 8.63425C39.5 8.63425 40.2096 8.87078 40.6827 9.46211C41.274 10.0534 41.6288 10.763 41.747 11.8274H35.2425Z" fill="#E0092D"/>
<path d="M75.5706 6.14844H71.7861V20.1037H75.5706V6.14844Z" fill="#E0092D"/>
<path d="M73.7979 0C72.2605 0 71.4326 0.709589 71.4326 2.0105C71.4326 3.31142 72.2605 4.021 73.7979 4.021C75.3354 4.021 76.1632 3.31142 76.1632 2.0105C76.1632 0.709589 75.3354 0 73.7979 0Z" fill="#E0092D"/>
<path d="M89.7641 5.79579C90.2371 5.55926 90.8285 5.44099 91.4198 5.44099C91.6563 5.44099 91.8929 5.44099 92.0111 5.44099L91.5381 2.7209C90.3554 2.60264 89.4093 2.95743 88.6997 3.54876C87.9901 4.14008 87.5171 5.0862 87.2805 6.15058C86.4527 5.91405 85.5065 5.79579 84.4422 5.79579C82.4317 5.79579 80.8942 6.26885 79.8298 7.0967C78.6472 7.92456 78.1741 9.1072 78.1741 10.5264C78.1741 11.3542 78.4107 12.0638 78.7654 12.7734C79.1202 13.3647 79.7116 13.9561 80.4212 14.3109C79.7116 14.5474 79.2385 14.9022 78.7654 15.3752C78.4107 15.8483 78.1741 16.4396 78.1741 17.1492C78.1741 17.7405 78.4107 18.3319 78.7654 18.8049C79.1202 19.278 79.5933 19.6328 80.3029 19.8693C79.475 20.1058 78.8837 20.4606 78.4107 20.8154C77.9376 21.2885 77.8193 21.8798 77.8193 22.4711C77.8193 23.5355 78.4107 24.3634 79.475 24.9547C80.5394 25.546 82.3134 25.9008 84.6787 25.9008C86.9257 25.9008 88.6997 25.4277 90.1189 24.5999C91.5381 23.772 92.1294 22.5894 92.1294 21.1702C92.1294 19.8693 91.7746 18.9232 90.9467 18.3319C90.1189 17.6223 88.9362 17.3857 87.3988 17.3857H82.6682C82.1951 17.3857 81.7221 17.2675 81.4855 17.1492C81.249 16.9127 81.0125 16.6762 81.0125 16.3214C81.0125 15.73 81.3673 15.257 82.0769 15.0204C82.7865 15.1387 83.6143 15.257 84.5604 15.257C86.5709 15.257 88.1084 14.7839 89.291 13.9561C90.4737 13.1282 90.9467 11.9456 90.9467 10.5264C90.9467 9.69853 90.7102 8.98894 90.3554 8.39761C90.0006 7.80629 89.5275 7.21497 88.818 6.86017C88.9362 6.38711 89.291 6.03232 89.7641 5.79579ZM83.023 20.4606H86.8075C87.5171 20.4606 88.1084 20.5789 88.4632 20.6972C88.818 20.9337 88.9362 21.1702 88.9362 21.525C88.9362 21.9981 88.5814 22.4711 87.8718 22.7077C87.1623 23.0625 86.2161 23.1807 84.9152 23.1807C83.496 23.1807 82.5499 23.0625 81.8403 22.7077C81.1307 22.4711 80.776 21.9981 80.776 21.525C80.6577 20.9337 81.4855 20.4606 83.023 20.4606ZM86.3344 12.1821C85.8613 12.6551 85.27 12.7734 84.4422 12.7734C83.7326 12.7734 83.1413 12.5369 82.6682 12.1821C82.1951 11.709 81.9586 11.236 81.9586 10.5264C81.9586 9.81679 82.1951 9.22547 82.6682 8.87067C83.1413 8.39761 83.7326 8.27935 84.4422 8.27935C85.1518 8.27935 85.8613 8.51588 86.3344 8.87067C86.8075 9.34373 87.044 9.81679 87.044 10.5264C87.044 11.236 86.8075 11.8273 86.3344 12.1821Z" fill="#E0092D"/>
<path d="M102.299 5.79498C101.235 5.79498 100.407 6.03151 99.579 6.50457C98.7511 6.97763 98.1598 7.56895 97.805 8.51507V0H94.0205V19.9868H97.805V12.6543C97.805 11.3534 98.1598 10.4073 98.7511 9.81598C99.3424 9.22466 100.17 8.86986 100.998 8.86986C102.654 8.86986 103.482 9.93425 103.482 12.063V20.105H107.266V10.8804C107.266 9.22466 106.793 8.04201 105.847 7.09589C105.019 6.26804 103.836 5.79498 102.299 5.79498Z" fill="#E0092D"/>
<path d="M116.729 17.3843C115.428 17.3843 114.836 16.793 114.836 15.4921V8.98749H119.33V6.14914H114.836V1.8916L111.052 2.95599V6.14914H108.568V8.98749H111.052V16.2016C111.052 19.04 112.589 20.4592 115.664 20.4592C116.374 20.4592 117.083 20.3409 117.793 20.1044C118.503 19.8679 118.976 19.6313 119.449 19.2765L118.857 16.793C118.266 17.1478 117.556 17.3843 116.729 17.3843Z" fill="#E0092D"/>
<path d="M131.63 6.14962L129.028 14.3099L128.2 17.2665L127.49 14.4282L124.889 6.03135H120.631L124.889 16.5569L126.426 20.2231L125.953 21.4058C125.716 21.9971 125.362 22.4702 125.007 22.7067C124.652 22.9432 124.179 23.0615 123.588 23.0615C122.996 23.0615 122.642 22.9432 122.287 22.825C121.932 22.7067 121.577 22.4702 121.341 22.1154L120.395 24.8355C121.222 25.545 122.405 25.8998 123.942 25.8998C125.48 25.8998 126.663 25.545 127.49 24.7172C128.437 24.0076 129.146 22.5884 129.856 20.6962L135.532 5.91309H131.63V6.14962Z" fill="#E0092D"/>
<path d="M62.7987 5.7959C60.6699 5.7959 59.0142 6.38722 57.8316 7.68814C56.6489 8.98905 56.0576 10.763 56.0576 13.0101C56.0576 13.4831 56.0576 14.0744 56.1759 14.5475H65.9919C65.6371 16.558 64.4544 17.5041 62.5622 17.5041C61.7343 17.5041 61.143 17.3859 60.5517 17.0311C60.0786 16.6763 59.7238 16.3215 59.4873 15.7301L56.4124 16.9128C56.8855 17.9772 57.5951 18.9233 58.6594 19.5146C59.7238 20.1059 61.0247 20.3425 62.5622 20.3425C64.8092 20.3425 66.7015 19.7512 67.8841 18.4502C69.185 17.1493 69.7763 15.3754 69.7763 13.0101C69.7763 10.763 69.185 8.98905 67.8841 7.68814C66.7015 6.50549 64.9275 5.7959 62.7987 5.7959ZM59.6056 11.8274C59.7238 10.763 60.0786 10.0534 60.6699 9.46211C61.2613 8.87078 61.9709 8.63425 62.7987 8.63425C63.7448 8.63425 64.4544 8.87078 65.0457 9.46211C65.6371 10.0534 65.9919 10.763 66.1101 11.8274H59.6056Z" fill="#E0092D"/>
<path d="M53.6919 11H47.4238V14.3114H53.6919V11Z" fill="#E0092D"/>
</svg>
