<svg xmlns="http://www.w3.org/2000/svg" viewBox="0 0 1920 437.14014"><defs><style>.a{fill:#2d4052;}.b{fill:#e4613f;}</style></defs><path class="a" d="M506.96277,233.09848c-46.06159-12.181-50.2495-33.87782-50.2495-54.43468,0-28.92722,30.45259-52.90931,65.47579-52.90931,33.87509,0,67.37293,15.22629,69.27553,55.95457H547.31108c-1.14266-13.321-13.32369-18.27155-23.97936-18.27155-11.8038,0-22.45947,4.18791-22.45947,17.5116,0,7.23317,8.37583,12.181,18.64879,14.84632l29.69264,7.23044c41.11372,11.42109,46.43883,38.82841,46.43883,53.29476,0,36.5431-35.77769,54.81465-72.7035,54.81465-35.02321,0-70.42365-21.69952-71.56631-59.76525h43.399c1.14265,12.561,15.60353,23.60212,32.73789,22.45947,13.31822-.38,23.21941-7.61315,23.21941-17.89158.37724-9.13578-6.09051-13.70366-19.4142-16.74892Z"/><path class="a" d="M658.17051,307.32734H611.73169V129.55969h46.43882V155.8271c10.27843-19.41421,31.97795-30.07261,52.912-30.07261,41.491,0,66.23574,25.88469,66.23574,76.51143V307.32734H730.87948V210.64175c0-25.88743-13.7064-39.58836-33.88055-39.58836-21.31681,0-38.82842,10.65567-38.82842,41.491Z"/><path class="a" d="M942.08384,284.4879c-11.03838,18.27155-38.063,26.26467-55.19189,26.26467-46.82154,0-90.59781-35.78042-90.59781-92.50041,0-56.71725,43.77627-92.49767,90.59781-92.49767,16.36894,0,41.87367,6.47049,55.19189,25.88469V129.55969h46.44429V307.32734H942.08384ZM893.3597,266.21635c25.50473,0,48.72414-17.5116,48.72414-47.96419s-24.36207-47.96145-48.72414-47.96145c-25.882,0-49.10137,19.03423-49.10137,47.96145C844.25833,247.18485,867.47774,266.21635,893.3597,266.21635Z"/><path class="a" d="M1061.10041,153.54179c9.51849-17.89158,32.36066-27.7873,55.58007-27.7873,46.43882,0,86.78713,36.5431,86.78713,92.49767,0,56.72-40.34831,92.88312-86.78713,92.88312-23.21941,0-46.06158-9.51848-55.58007-27.40733V393.73723h-46.43882V129.55969h46.43882ZM1109.0646,266.9763c25.50472,0,46.82153-19.0315,46.82153-47.96146,0-29.30993-21.31681-48.72413-46.82153-48.72413s-47.19877,19.03423-47.19877,48.72413C1061.86583,249.46743,1084.70253,266.9763,1109.0646,266.9763Z"/><path class="a" d="M1282.66039,217.87219c0-56.33728,42.25092-92.1177,92.87765-92.1177,50.63221,0,92.88312,35.78042,92.88312,92.1177s-42.25091,93.26309-92.88312,93.26309C1324.91131,311.13528,1282.66039,274.20947,1282.66039,217.87219Zm168.63188,0c0-45.67888-34.6405-74.98881-75.75423-74.98881-41.10825,0-75.74875,29.30993-75.74875,74.98881,0,46.05885,34.6405,76.13146,75.74875,76.13146C1416.65177,294.00365,1451.29227,263.931,1451.29227,217.87219Z"/><path class="a" d="M1492.53174,129.55969h17.5116v35.02047c10.27843-28.55,38.4457-38.82567,62.80777-38.82567,42.63362,0,70.80636,29.6899,70.80636,77.27138V307.32734h-17.13436V203.02587c0-37.683-21.69405-60.14249-53.672-60.14249-31.21253,0-61.66512,17.50887-62.80777,64.71311v99.73085h-17.5116Z"/><path class="a" d="M1842.45216,225.868H1683.716c3.04525,41.491,33.88055,68.13561,71.94354,68.13561,27.03009,0,49.48955-12.561,62.04783-33.87782l16.369,5.71055c-15.2263,28.92995-44.53623,45.2989-78.41678,45.2989-49.86132,0-89.45515-36.92581-89.45515-93.26309s39.59383-92.1177,89.45515-92.1177c50.62674,0,87.16984,35.78042,87.16984,92.1177A56.75166,56.75166,0,0,1,1842.45216,225.868Zm-158.73614-15.989h141.60725c-3.428-41.111-31.218-66.99569-69.66371-66.99569C1717.97927,142.88338,1686.76127,168.76808,1683.716,209.87907Z"/><path class="a" d="M372.19048,85.85309,283.71232,41.614a197.8428,197.8428,0,0,0-176.956,0l-.00008,0L372.19048,174.33116Z"/><polygon class="b" points="106.756 130.092 161.663 102.658 73.146 58.399 18.278 85.853 18.278 174.331 372.19 351.287 372.19 262.809 106.756 130.092"/><path class="a" d="M250.14176,323.85311l-3.91055,1.95386a114.05757,114.05757,0,0,1-101.98674-.01473L18.2784,262.80921v88.47788l88.47746,44.2389a197.84279,197.84279,0,0,0,176.95658,0l54.88669-27.44348Z"/><path class="a" d="M1842.8294,130.70284v-4.94835h21.60365v4.94835h-8.0127v23.83664H1850.774V130.70284Zm58.8922,23.83664h-5.9244l-2.094-18.11937-7.17852,14.91316h-4.39223l-7.24661-14.84506-2.16207,18.05127h-5.85063l3.62615-28.785h4.73838l9.125,19.16635,8.92065-19.16635h4.88025Z"/></svg>