<svg xmlns="http://www.w3.org/2000/svg" viewBox="0 0 800 800"><defs><style>.a{fill:#fff;}</style></defs><polygon class="a" points="340.322 470.76 472.417 404.712 340.322 338.664 340.322 470.76"/><path class="a" d="M390.002,50.00256C197.00928,50.00256,40,207.01056,40,400.00061c0,192.98883,157.00928,349.99683,350.002,349.99683C582.99219,749.99744,740,592.98944,740,400.00061,740,207.01056,582.99219,50.00256,390.002,50.00256Zm125.5835,500.27838c-27.8457,1.90217-74.79248,3.03815-125.54346,3.03815-50.85644,0-97.93506-1.136-125.93945-3.03815-65.25488-4.46484-71.9126-45.62567-72.38818-145.5689.47558-99.94318,7.1333-141.104,72.38818-145.56885,28.00439-1.90216,75.083-3.03815,125.93945-3.03815,50.85694,0,97.75049,1.136,125.56983,3.03815C580.8667,263.608,587.55078,304.74243,588,404.712,587.52441,504.6817,580.8667,545.84253,515.58545,550.28094Z"/></svg>